<svg width="14" height="15" viewBox="0 0 14 15" fill="none" xmlns="http://www.w3.org/2000/svg">
<path d="M10 13.5H4C3.40326 13.5 2.83097 13.2629 2.40901 12.841C1.98705 12.419 1.75 11.8467 1.75 11.25V3.75C1.75 3.55109 1.67098 3.36032 1.53033 3.21967C1.38968 3.07902 1.19891 3 1 3C0.801088 3 0.610322 3.07902 0.46967 3.21967C0.329018 3.36032 0.25 3.55109 0.25 3.75V11.25C0.25 12.2446 0.645088 13.1984 1.34835 13.9017C2.05161 14.6049 3.00544 15 4 15H10C10.1989 15 10.3897 14.921 10.5303 14.7803C10.671 14.6397 10.75 14.4489 10.75 14.25C10.75 14.0511 10.671 13.8603 10.5303 13.7197C10.3897 13.579 10.1989 13.5 10 13.5ZM13.75 5.205C13.7422 5.1361 13.7271 5.06822 13.705 5.0025V4.935C13.6689 4.85788 13.6208 4.787 13.5625 4.725L9.0625 0.225C9.0005 0.166662 8.92962 0.118561 8.8525 0.0824999H8.785L8.545 0H5.5C4.90326 0 4.33097 0.237053 3.90901 0.65901C3.48705 1.08097 3.25 1.65326 3.25 2.25V9.75C3.25 10.3467 3.48705 10.919 3.90901 11.341C4.33097 11.7629 4.90326 12 5.5 12H11.5C12.0967 12 12.669 11.7629 13.091 11.341C13.5129 10.919 13.75 10.3467 13.75 9.75V5.25C13.75 5.25 13.75 5.25 13.75 5.205ZM9.25 2.5575L11.1925 4.5H10C9.80109 4.5 9.61032 4.42098 9.46967 4.28033C9.32902 4.13968 9.25 3.94891 9.25 3.75V2.5575ZM12.25 9.75C12.25 9.94891 12.171 10.1397 12.0303 10.2803C11.8897 10.421 11.6989 10.5 11.5 10.5H5.5C5.30109 10.5 5.11032 10.421 4.96967 10.2803C4.82902 10.1397 4.75 9.94891 4.75 9.75V2.25C4.75 2.05109 4.82902 1.86032 4.96967 1.71967C5.11032 1.57902 5.30109 1.5 5.5 1.5H7.75V3.75C7.75 4.34674 7.98705 4.91903 8.40901 5.34099C8.83097 5.76295 9.40326 6 10 6H12.25V9.75Z" fill="#00948B"/>
</svg>
