<svg width="24" height="24" fill="black" viewBox="0 0 24 24" xmlns="http://www.w3.org/2000/svg">
<path d="M23.4409 15.1201C23.2159 14.9335 22.899 14.9055 22.6449 15.0498C22.3971 15.1905 22.1388 15.3167 21.877 15.425C21.0415 15.7712 20.1636 15.9467 19.2677 15.9467C16.4956 15.9467 14.0189 14.2918 12.9581 11.7308C12.2603 10.0462 12.2603 8.1907 12.9581 6.50616C13.6559 4.82161 14.9679 3.50958 16.6523 2.81184C16.915 2.70309 17.187 2.60972 17.4605 2.53434C17.7423 2.45672 17.9467 2.21283 17.9738 1.92178C18.0009 1.63073 17.8452 1.35328 17.5826 1.22489C15.944 0.423516 14.1182 0 12.3026 0C10.7273 0 9.18456 0.308109 7.71732 0.915797C4.7567 2.14219 2.45082 4.44806 1.22448 7.40869C-0.00191021 10.3693 -0.00191021 13.6303 1.22448 16.5909C2.1504 18.8263 3.70553 20.7065 5.72172 22.0283C7.6892 23.3182 9.9684 24 12.3129 24C13.8887 24 15.4319 23.6917 16.8995 23.0838C20.0765 21.7679 22.5396 19.1456 23.657 15.8895C23.7519 15.613 23.6658 15.3067 23.4409 15.1201ZM16.3613 21.7845C15.0651 22.3215 13.703 22.5937 12.3129 22.5937C8.01203 22.5937 4.16954 20.0262 2.52362 16.0527C1.44104 13.4392 1.44104 10.5604 2.52362 7.94681C3.6062 5.3332 5.64184 3.29766 8.25545 2.21503C9.55122 1.67836 10.9129 1.40625 12.3026 1.40625C13.3377 1.40625 14.3768 1.5623 15.3728 1.86347C11.6909 3.83517 10.0276 8.33048 11.6589 12.2688C12.2943 13.8029 13.3615 15.0931 14.745 16.0002C16.0948 16.8851 17.6588 17.3529 19.2677 17.3529C20.0762 17.3529 20.8721 17.2347 21.643 17.0007C20.4949 19.1426 18.6353 20.8427 16.3613 21.7845Z" fill="#878787"/>
</svg>
