<svg width="16" height="15" viewBox="0 0 16 15" fill="none" xmlns="http://www.w3.org/2000/svg">
<path fill-rule="evenodd" clip-rule="evenodd" d="M8.53662 4.14062C8.53662 4.02874 8.49218 3.92143 8.41306 3.84231C8.33394 3.7632 8.22664 3.71875 8.11475 3.71875H2.51562C2.17996 3.71875 1.85804 3.85209 1.62069 4.08944C1.38334 4.32679 1.25 4.64871 1.25 4.98438V13.4219C1.25 13.7575 1.38334 14.0795 1.62069 14.3168C1.85804 14.5542 2.17996 14.6875 2.51562 14.6875H10.9531C11.2888 14.6875 11.6107 14.5542 11.8481 14.3168C12.0854 14.0795 12.2188 13.7575 12.2188 13.4219V7.82275C12.2188 7.71086 12.1743 7.60356 12.0952 7.52444C12.0161 7.44532 11.9088 7.40088 11.7969 7.40088C11.685 7.40088 11.5777 7.44532 11.4986 7.52444C11.4194 7.60356 11.375 7.71086 11.375 7.82275V13.4219C11.375 13.5338 11.3306 13.6411 11.2514 13.7202C11.1723 13.7993 11.065 13.8438 10.9531 13.8438H2.51562C2.40374 13.8438 2.29643 13.7993 2.21731 13.7202C2.1382 13.6411 2.09375 13.5338 2.09375 13.4219V4.98438C2.09375 4.87249 2.1382 4.76518 2.21731 4.68606C2.29643 4.60695 2.40374 4.5625 2.51562 4.5625H8.11475C8.22664 4.5625 8.33394 4.51805 8.41306 4.43894C8.49218 4.35982 8.53662 4.25251 8.53662 4.14062Z" fill="#00948B"/>
<path fill-rule="evenodd" clip-rule="evenodd" d="M14.7505 1.60938C14.7505 1.49749 14.7061 1.39018 14.627 1.31106C14.5478 1.23195 14.4405 1.1875 14.3286 1.1875H10.1099C9.998 1.1875 9.8907 1.23195 9.81158 1.31106C9.73246 1.39018 9.68802 1.49749 9.68802 1.60938C9.68802 1.72126 9.73246 1.82857 9.81158 1.90769C9.8907 1.9868 9.998 2.03125 10.1099 2.03125H13.3102L6.4362 8.90444C6.39698 8.94366 6.36587 8.99023 6.34464 9.04148C6.32341 9.09273 6.31248 9.14765 6.31248 9.20312C6.31248 9.2586 6.32341 9.31352 6.34464 9.36477C6.36587 9.41602 6.39698 9.46259 6.4362 9.50181C6.47543 9.54104 6.52199 9.57215 6.57324 9.59338C6.62449 9.61461 6.67942 9.62553 6.73489 9.62553C6.79036 9.62553 6.84529 9.61461 6.89654 9.59338C6.94779 9.57215 6.99436 9.54104 7.03358 9.50181L13.9068 2.62778V5.82812C13.9068 5.94001 13.9512 6.04732 14.0303 6.12644C14.1094 6.20555 14.2168 6.25 14.3286 6.25C14.4405 6.25 14.5478 6.20555 14.627 6.12644C14.7061 6.04732 14.7505 5.94001 14.7505 5.82812V1.60938Z" fill="#00948B"/>
<path fill-rule="evenodd" clip-rule="evenodd" d="M8.53662 4.14062C8.53662 4.02874 8.49218 3.92143 8.41306 3.84231C8.33394 3.7632 8.22664 3.71875 8.11475 3.71875H2.51562C2.17996 3.71875 1.85804 3.85209 1.62069 4.08944C1.38334 4.32679 1.25 4.64871 1.25 4.98438V13.4219C1.25 13.7575 1.38334 14.0795 1.62069 14.3168C1.85804 14.5542 2.17996 14.6875 2.51562 14.6875H10.9531C11.2888 14.6875 11.6107 14.5542 11.8481 14.3168C12.0854 14.0795 12.2188 13.7575 12.2188 13.4219V7.82275C12.2188 7.71086 12.1743 7.60356 12.0952 7.52444C12.0161 7.44532 11.9088 7.40088 11.7969 7.40088C11.685 7.40088 11.5777 7.44532 11.4986 7.52444C11.4194 7.60356 11.375 7.71086 11.375 7.82275V13.4219C11.375 13.5338 11.3306 13.6411 11.2514 13.7202C11.1723 13.7993 11.065 13.8438 10.9531 13.8438H2.51562C2.40374 13.8438 2.29643 13.7993 2.21731 13.7202C2.1382 13.6411 2.09375 13.5338 2.09375 13.4219V4.98438C2.09375 4.87249 2.1382 4.76518 2.21731 4.68606C2.29643 4.60695 2.40374 4.5625 2.51562 4.5625H8.11475C8.22664 4.5625 8.33394 4.51805 8.41306 4.43894C8.49218 4.35982 8.53662 4.25251 8.53662 4.14062Z" stroke="#00948B" stroke-width="0.6"/>
<path fill-rule="evenodd" clip-rule="evenodd" d="M14.7505 1.60938C14.7505 1.49749 14.7061 1.39018 14.627 1.31106C14.5478 1.23195 14.4405 1.1875 14.3286 1.1875H10.1099C9.998 1.1875 9.8907 1.23195 9.81158 1.31106C9.73246 1.39018 9.68802 1.49749 9.68802 1.60938C9.68802 1.72126 9.73246 1.82857 9.81158 1.90769C9.8907 1.9868 9.998 2.03125 10.1099 2.03125H13.3102L6.4362 8.90444C6.39698 8.94366 6.36587 8.99023 6.34464 9.04148C6.32341 9.09273 6.31248 9.14765 6.31248 9.20312C6.31248 9.2586 6.32341 9.31352 6.34464 9.36477C6.36587 9.41602 6.39698 9.46259 6.4362 9.50181C6.47543 9.54104 6.52199 9.57215 6.57324 9.59338C6.62449 9.61461 6.67942 9.62553 6.73489 9.62553C6.79036 9.62553 6.84529 9.61461 6.89654 9.59338C6.94779 9.57215 6.99436 9.54104 7.03358 9.50181L13.9068 2.62778V5.82812C13.9068 5.94001 13.9512 6.04732 14.0303 6.12644C14.1094 6.20555 14.2168 6.25 14.3286 6.25C14.4405 6.25 14.5478 6.20555 14.627 6.12644C14.7061 6.04732 14.7505 5.94001 14.7505 5.82812V1.60938Z" stroke="#00948B" stroke-width="0.6"/>
</svg>
