<svg width="24" height="24" viewBox="0 0 24 24" fill="none" xmlns="http://www.w3.org/2000/svg">
    <g clip-path="url(#clip0_1801_25784)">
        <path d="M12.0003 7.14825C11.3609 7.14825 10.7278 7.27419 10.1371 7.51888C9.54632 7.76357 9.00957 8.12222 8.55744 8.57435C8.10531 9.02648 7.74667 9.56323 7.50198 10.154C7.25729 10.7447 7.13134 11.3778 7.13134 12.0173C7.13134 12.6567 7.25729 13.2898 7.50198 13.8805C7.74667 14.4713 8.10531 15.008 8.55744 15.4602C9.00957 15.9123 9.54632 16.2709 10.1371 16.5156C10.7278 16.7603 11.3609 16.8863 12.0003 16.8863C13.2917 16.8863 14.5301 16.3733 15.4432 15.4602C16.3564 14.547 16.8693 13.3086 16.8693 12.0173C16.8693 10.7259 16.3564 9.48746 15.4432 8.57435C14.5301 7.66123 13.2917 7.14825 12.0003 7.14825ZM8.63134 12.0173C8.63134 11.1237 8.98629 10.2668 9.6181 9.63501C10.2499 9.0032 11.1068 8.64825 12.0003 8.64825C12.8939 8.64825 13.7508 9.0032 14.3826 9.63501C15.0144 10.2668 15.3693 11.1237 15.3693 12.0173C15.3693 12.9108 15.0144 13.7677 14.3826 14.3995C13.7508 15.0313 12.8939 15.3863 12.0003 15.3863C11.1068 15.3863 10.2499 15.0313 9.6181 14.3995C8.98629 13.7677 8.63134 12.9108 8.63134 12.0173Z" fill="#878787" />
        <path d="M14.7055 2.03719C13.915 -0.647813 10.108 -0.647813 9.31746 2.03719L9.17646 2.51569C9.12125 2.70312 9.02481 2.87582 8.89418 3.02113C8.76356 3.16644 8.60208 3.28067 8.42157 3.35547C8.24106 3.43026 8.04611 3.46371 7.85099 3.45336C7.65587 3.44302 7.46555 3.38915 7.29396 3.29569L6.85596 3.05569C4.39596 1.71769 1.70646 4.40869 3.04596 6.86719L3.28446 7.30519C3.37792 7.47678 3.43179 7.66711 3.44213 7.86222C3.45248 8.05734 3.41903 8.25229 3.34424 8.4328C3.26944 8.61331 3.15521 8.77479 3.0099 8.90541C2.86458 9.03604 2.69189 9.13248 2.50446 9.18769L2.02596 9.32869C-0.659043 10.1192 -0.659043 13.9262 2.02596 14.7167L2.50446 14.8577C2.69189 14.9129 2.86458 15.0093 3.0099 15.14C3.15521 15.2706 3.26944 15.4321 3.34424 15.6126C3.41903 15.7931 3.45248 15.988 3.44213 16.1832C3.43179 16.3783 3.37792 16.5686 3.28446 16.7402L3.04446 17.1782C1.70646 19.6382 4.39596 22.3292 6.85596 20.9882L7.29396 20.7497C7.46555 20.6562 7.65587 20.6024 7.85099 20.592C8.04611 20.5817 8.24106 20.6151 8.42157 20.6899C8.60208 20.7647 8.76356 20.8789 8.89418 21.0243C9.02481 21.1696 9.12125 21.3423 9.17646 21.5297L9.31746 22.0082C10.108 24.6932 13.915 24.6932 14.7055 22.0082L14.8465 21.5297C14.9017 21.3423 14.9981 21.1696 15.1287 21.0243C15.2594 20.8789 15.4208 20.7647 15.6013 20.6899C15.7819 20.6151 15.9768 20.5817 16.1719 20.592C16.367 20.6024 16.5574 20.6562 16.729 20.7497L17.167 20.9897C19.627 22.3292 22.318 19.6367 20.977 17.1782L20.7385 16.7402C20.645 16.5686 20.5911 16.3783 20.5808 16.1832C20.5704 15.988 20.6039 15.7931 20.6787 15.6126C20.7535 15.4321 20.8677 15.2706 21.013 15.14C21.1583 15.0093 21.331 14.9129 21.5185 14.8577L21.997 14.7167C24.682 13.9262 24.682 10.1192 21.997 9.32869L21.5185 9.18769C21.331 9.13248 21.1583 9.03604 21.013 8.90541C20.8677 8.77479 20.7535 8.61331 20.6787 8.4328C20.6039 8.25229 20.5704 8.05734 20.5808 7.86222C20.5911 7.66711 20.645 7.47678 20.7385 7.30519L20.9785 6.86719C22.318 4.40719 19.6255 1.71769 17.167 3.05719L16.729 3.29569C16.5574 3.38915 16.367 3.44302 16.1719 3.45336C15.9768 3.46371 15.7819 3.43026 15.6013 3.35547C15.4208 3.28067 15.2594 3.16644 15.1287 3.02113C14.9981 2.87582 14.9017 2.70312 14.8465 2.51569L14.7055 2.03719ZM10.756 2.46169C11.125 1.20919 12.898 1.20919 13.267 2.46169L13.408 2.94019C13.5265 3.34232 13.7335 3.71282 14.0138 4.02454C14.2942 4.33626 14.6407 4.58128 15.0281 4.74166C15.4154 4.90203 15.8337 4.97369 16.2524 4.95137C16.671 4.92906 17.0794 4.81333 17.4475 4.61269L17.884 4.37269C19.03 3.75019 20.284 5.00269 19.66 6.15019L19.4215 6.58819C19.2211 6.95633 19.1057 7.36463 19.0836 7.78317C19.0615 8.20171 19.1334 8.61989 19.2939 9.00706C19.4544 9.39424 19.6995 9.74059 20.0112 10.0208C20.323 10.3009 20.6934 10.5078 21.0955 10.6262L21.5725 10.7672C22.825 11.1362 22.825 12.9092 21.5725 13.2782L21.094 13.4192C20.6918 13.5377 20.3213 13.7447 20.0096 14.0251C19.6979 14.3054 19.4529 14.652 19.2925 15.0393C19.1321 15.4267 19.0605 15.845 19.0828 16.2636C19.1051 16.6823 19.2208 17.0906 19.4215 17.4587L19.6615 17.8952C20.284 19.0412 19.0315 20.2952 17.884 19.6712L17.4475 19.4327C17.0793 19.2321 16.6708 19.1164 16.2521 19.0942C15.8334 19.072 15.415 19.1437 15.0276 19.3043C14.6403 19.4648 14.2937 19.71 14.0135 20.0219C13.7332 20.3338 13.5263 20.7044 13.408 21.1067L13.267 21.5837C12.898 22.8362 11.125 22.8362 10.756 21.5837L10.615 21.1052C10.4964 20.7033 10.2894 20.333 10.0092 20.0214C9.72892 19.7099 9.38255 19.4649 8.99539 19.3046C8.60824 19.1442 8.19012 19.0725 7.77166 19.0947C7.3532 19.1168 6.945 19.2323 6.57696 19.4327L6.13896 19.6727C4.99296 20.2952 3.73896 19.0427 4.36296 17.8952L4.60146 17.4587C4.80238 17.0905 4.91833 16.6821 4.9408 16.2632C4.96326 15.8444 4.89167 15.4259 4.73127 15.0384C4.57088 14.6508 4.32575 14.3041 4.01388 14.0237C3.702 13.7432 3.3313 13.5362 2.92896 13.4177L2.45046 13.2767C1.19796 12.9077 1.19796 11.1347 2.45046 10.7657L2.92896 10.6247C3.33067 10.5061 3.70077 10.2991 4.01217 10.019C4.32358 9.73884 4.5684 9.39263 4.72874 9.00567C4.88907 8.61871 4.96086 8.2008 4.93883 7.78252C4.91681 7.36424 4.80154 6.95617 4.60146 6.58819L4.36146 6.15019C3.73896 5.00419 4.99146 3.75019 6.13896 4.37419L6.57696 4.61269C6.945 4.81305 7.3532 4.92855 7.77166 4.95072C8.19012 4.97289 8.60824 4.90117 8.99539 4.74081C9.38255 4.58046 9.72892 4.33553 10.0092 4.02397C10.2894 3.71241 10.4964 3.34211 10.615 2.94019L10.756 2.46169Z" fill="#878787" />
    </g>
    <defs>
        <clipPath id="clip0_1801_25784">
            <rect width="24" height="24" fill="white" />
        </clipPath>
    </defs>
</svg>
    