<svg width="16" height="17" viewBox="0 0 16 17" fill="none" xmlns="http://www.w3.org/2000/svg">
<path d="M8 15.5C6.14348 15.5 4.36301 14.7625 3.05025 13.4497C1.7375 12.137 1 10.3565 1 8.5C1 6.64348 1.7375 4.86301 3.05025 3.55025C4.36301 2.2375 6.14348 1.5 8 1.5C9.85652 1.5 11.637 2.2375 12.9497 3.55025C14.2625 4.86301 15 6.64348 15 8.5C15 10.3565 14.2625 12.137 12.9497 13.4497C11.637 14.7625 9.85652 15.5 8 15.5ZM8 16.5C10.1217 16.5 12.1566 15.6571 13.6569 14.1569C15.1571 12.6566 16 10.6217 16 8.5C16 6.37827 15.1571 4.34344 13.6569 2.84315C12.1566 1.34285 10.1217 0.5 8 0.5C5.87827 0.5 3.84344 1.34285 2.34315 2.84315C0.842855 4.34344 0 6.37827 0 8.5C0 10.6217 0.842855 12.6566 2.34315 14.1569C3.84344 15.6571 5.87827 16.5 8 16.5Z" fill="#878787"/>
<path d="M5.25415 6.286C5.25278 6.31829 5.25803 6.35053 5.26958 6.38072C5.28113 6.41091 5.29873 6.43841 5.3213 6.46155C5.34387 6.48468 5.37094 6.50296 5.40084 6.51524C5.43073 6.52753 5.46283 6.53357 5.49515 6.533H6.32015C6.45815 6.533 6.56815 6.42 6.58615 6.283C6.67615 5.627 7.12615 5.149 7.92815 5.149C8.61415 5.149 9.24215 5.492 9.24215 6.317C9.24215 6.952 8.86815 7.244 8.27715 7.688C7.60415 8.177 7.07115 8.748 7.10915 9.675L7.11215 9.892C7.1132 9.95761 7.14 10.0202 7.18677 10.0662C7.23354 10.1122 7.29653 10.138 7.36215 10.138H8.17315C8.23945 10.138 8.30304 10.1117 8.34992 10.0648C8.39681 10.0179 8.42315 9.9543 8.42315 9.888V9.783C8.42315 9.065 8.69615 8.856 9.43315 8.297C10.0421 7.834 10.6771 7.32 10.6771 6.241C10.6771 4.73 9.40115 4 8.00415 4C6.73715 4 5.34915 4.59 5.25415 6.286ZM6.81115 12.049C6.81115 12.582 7.23615 12.976 7.82115 12.976C8.43015 12.976 8.84915 12.582 8.84915 12.049C8.84915 11.497 8.42915 11.109 7.82015 11.109C7.23615 11.109 6.81115 11.497 6.81115 12.049Z" fill="#878787"/>
</svg>
