<svg width="285" height="160" viewBox="0 0 285 160" fill="none" xmlns="http://www.w3.org/2000/svg">
<g clip-path="url(#clip0_1095_5769)">
<path opacity="0.15" d="M285.425 84.3498C285.425 87.6186 284.13 90.7542 281.824 93.0702C279.517 95.3862 276.386 96.6939 273.118 96.7069H216.077C214.434 96.6644 212.798 96.9514 211.267 97.551C209.736 98.1506 208.341 99.0507 207.163 100.198C205.986 101.346 205.05 102.717 204.411 104.232C203.772 105.747 203.443 107.375 203.443 109.019C203.443 110.663 203.772 112.29 204.411 113.805C205.05 115.32 205.986 116.692 207.163 117.839C208.341 118.987 209.736 119.887 211.267 120.486C212.798 121.086 214.434 121.373 216.077 121.331H216.374C219.476 121.571 222.373 122.974 224.487 125.258C226.6 127.542 227.774 130.539 227.774 133.651C227.774 136.762 226.6 139.76 224.487 142.044C222.373 144.327 219.476 145.73 216.374 145.971H84.4406C81.3382 145.73 78.4408 144.327 76.3274 142.044C74.2139 139.76 73.0399 136.762 73.0399 133.651C73.0399 130.539 74.2139 127.542 76.3274 125.258C78.4408 122.974 81.3382 121.571 84.4406 121.331H111.824C113.468 121.373 115.103 121.086 116.634 120.486C118.165 119.887 119.56 118.987 120.738 117.839C121.915 116.692 122.851 115.32 123.49 113.805C124.129 112.29 124.458 110.663 124.458 109.019C124.458 107.375 124.129 105.747 123.49 104.232C122.851 102.717 121.915 101.346 120.738 100.198C119.56 99.0507 118.165 98.1506 116.634 97.551C115.103 96.9514 113.468 96.6644 111.824 96.7069H17.5143C15.816 96.8388 14.1089 96.6181 12.5 96.0587C10.8911 95.4994 9.41518 94.6134 8.16498 93.4565C6.91477 92.2996 5.91725 90.8967 5.23505 89.336C4.55284 87.7752 4.20068 86.0902 4.20068 84.3869C4.20068 82.6835 4.55284 80.9985 5.23505 79.4378C5.91725 77.877 6.91477 76.4741 8.16498 75.3172C9.41518 74.1603 10.8911 73.2743 12.5 72.715C14.1089 72.1556 15.816 71.9349 17.5143 72.0668H44.8895C46.5331 72.1093 48.1686 71.8223 49.6995 71.2227C51.2304 70.6231 52.6258 69.723 53.8033 68.5755C54.9809 67.4281 55.9167 66.0564 56.5557 64.5415C57.1947 63.0266 57.5239 61.3991 57.5239 59.755C57.5239 58.1108 57.1947 56.4833 56.5557 54.9684C55.9167 53.4535 54.9809 52.0818 53.8033 50.9344C52.6258 49.7869 51.2304 48.8868 49.6995 48.2872C48.1686 47.6876 46.5331 47.4006 44.8895 47.4431H44.5847C41.4823 47.2023 38.5849 45.7998 36.4715 43.5159C34.358 41.232 33.184 38.2348 33.184 35.123C33.184 32.0113 34.358 29.0141 36.4715 26.7302C38.5849 24.4463 41.4823 23.0438 44.5847 22.803H165.751C168.853 23.0438 171.75 24.4463 173.864 26.7302C175.977 29.0141 177.151 32.0113 177.151 35.123C177.151 38.2348 175.977 41.232 173.864 43.5159C171.75 45.7998 168.853 47.2023 165.751 47.4431H149.11C147.466 47.4006 145.831 47.6876 144.3 48.2872C142.769 48.8868 141.373 49.7869 140.196 50.9344C139.018 52.0818 138.082 53.4535 137.443 54.9684C136.804 56.4833 136.475 58.1108 136.475 59.755C136.475 61.3991 136.804 63.0266 137.443 64.5415C138.082 66.0564 139.018 67.4281 140.196 68.5755C141.373 69.723 142.769 70.6231 144.3 71.2227C145.831 71.8223 147.466 72.1093 149.11 72.0668H149.736C150.254 72.0769 150.772 72.1209 151.284 72.1986C151.887 72.1084 152.496 72.0644 153.105 72.0668H273.118C276.374 72.0798 279.493 73.3772 281.797 75.6772C284.102 77.9772 285.406 81.0939 285.425 84.3498Z" fill="#D6EEF9"/>
<path opacity="0.87" d="M195.572 40.6469C196.027 40.6469 196.396 40.2781 196.396 39.8231C196.396 39.3681 196.027 38.9993 195.572 38.9993C195.117 38.9993 194.749 39.3681 194.749 39.8231C194.749 40.2781 195.117 40.6469 195.572 40.6469Z" fill="#51BAB4"/>
<path opacity="0.56" d="M99.442 19.5573C99.897 19.5573 100.266 19.1885 100.266 18.7335C100.266 18.2785 99.897 17.9097 99.442 17.9097C98.987 17.9097 98.6182 18.2785 98.6182 18.7335C98.6182 19.1885 98.987 19.5573 99.442 19.5573Z" fill="#51BAB4"/>
<path opacity="0.56" d="M99.4422 149.933C99.4422 150.152 99.3554 150.361 99.2009 150.516C99.0464 150.67 98.8369 150.757 98.6184 150.757H96.147V153.228C96.147 153.447 96.0602 153.657 95.9057 153.811C95.7512 153.966 95.5416 154.052 95.3231 154.052C95.1047 154.052 94.8951 153.966 94.7406 153.811C94.5861 153.657 94.4993 153.447 94.4993 153.228V150.757H92.0279C91.8094 150.757 91.5999 150.67 91.4454 150.516C91.2909 150.361 91.2041 150.152 91.2041 149.933C91.2041 149.715 91.2909 149.505 91.4454 149.351C91.5999 149.196 91.8094 149.109 92.0279 149.109H94.4993V146.638C94.4993 146.42 94.5861 146.21 94.7406 146.055C94.8951 145.901 95.1047 145.814 95.3231 145.814C95.5416 145.814 95.7512 145.901 95.9057 146.055C96.0602 146.21 96.147 146.42 96.147 146.638V149.109H98.6184C98.8369 149.109 99.0464 149.196 99.2009 149.351C99.3554 149.505 99.4422 149.715 99.4422 149.933Z" fill="#51BAB4"/>
<path opacity="0.24" d="M202.295 67.5688C202.977 67.5688 203.531 67.0156 203.531 66.3331C203.531 65.6507 202.977 65.0974 202.295 65.0974C201.612 65.0974 201.059 65.6507 201.059 66.3331C201.059 67.0156 201.612 67.5688 202.295 67.5688Z" fill="#51BAB4"/>
<path opacity="0.24" d="M120.581 10.3966C120.581 10.6151 120.494 10.8247 120.34 10.9792C120.185 11.1337 119.976 11.2204 119.757 11.2204H117.286V13.6919C117.286 13.9104 117.199 14.1199 117.044 14.2744C116.89 14.4289 116.68 14.5157 116.462 14.5157C116.243 14.5157 116.034 14.4289 115.879 14.2744C115.725 14.1199 115.638 13.9104 115.638 13.6919V11.2204H113.167C112.948 11.2204 112.739 11.1337 112.584 10.9792C112.43 10.8247 112.343 10.6151 112.343 10.3966C112.343 10.1781 112.43 9.96861 112.584 9.81411C112.739 9.65962 112.948 9.57283 113.167 9.57283H115.638V7.1014C115.638 6.88291 115.725 6.67337 115.879 6.51888C116.034 6.36438 116.243 6.27759 116.462 6.27759C116.68 6.27759 116.89 6.36438 117.044 6.51888C117.199 6.67337 117.286 6.88291 117.286 7.1014V9.57283H119.757C119.865 9.57283 119.972 9.59413 120.072 9.63553C120.172 9.67694 120.263 9.73762 120.34 9.81411C120.416 9.89061 120.477 9.98143 120.518 10.0814C120.56 10.1813 120.581 10.2885 120.581 10.3966Z" fill="#51BAB4"/>
<path opacity="0.87" d="M81.3184 160.956C81.7734 160.956 82.1422 160.587 82.1422 160.132C82.1422 159.677 81.7734 159.308 81.3184 159.308C80.8635 159.308 80.4946 159.677 80.4946 160.132C80.4946 160.587 80.8635 160.956 81.3184 160.956Z" fill="#51BAB4"/>
<path opacity="0.56" d="M35.6219 127.987C35.6219 128.206 35.5351 128.415 35.3806 128.57C35.2261 128.724 35.0166 128.811 34.7981 128.811H32.3266V131.282C32.3266 131.501 32.2398 131.71 32.0854 131.865C31.9309 132.019 31.7213 132.106 31.5028 132.106C31.2843 132.106 31.0748 132.019 30.9203 131.865C30.7658 131.71 30.679 131.501 30.679 131.282V128.811H28.2076C27.9891 128.811 27.7796 128.724 27.6251 128.57C27.4706 128.415 27.3838 128.206 27.3838 127.987C27.3838 127.769 27.4706 127.559 27.6251 127.405C27.7796 127.25 27.9891 127.163 28.2076 127.163H30.679V124.692C30.679 124.473 30.7658 124.264 30.9203 124.109C31.0748 123.955 31.2843 123.868 31.5028 123.868C31.7213 123.868 31.9309 123.955 32.0854 124.109C32.2398 124.264 32.3266 124.473 32.3266 124.692V127.163H34.7981C35.0166 127.163 35.2261 127.25 35.3806 127.405C35.5351 127.559 35.6219 127.769 35.6219 127.987Z" fill="#51BAB4"/>
<path opacity="0.56" d="M247.077 88.3452C247.759 88.3452 248.313 87.792 248.313 87.1095C248.313 86.427 247.759 85.8738 247.077 85.8738C246.395 85.8738 245.841 86.427 245.841 87.1095C245.841 87.792 246.395 88.3452 247.077 88.3452Z" fill="#51BAB4"/>
<path opacity="0.56" d="M228.648 149.423C228.648 149.641 228.561 149.851 228.407 150.005C228.252 150.16 228.043 150.246 227.824 150.246H225.353V152.718C225.353 152.936 225.266 153.146 225.112 153.3C224.957 153.455 224.748 153.542 224.529 153.542C224.311 153.542 224.101 153.455 223.947 153.3C223.792 153.146 223.705 152.936 223.705 152.718V150.246H221.234C221.015 150.246 220.806 150.16 220.651 150.005C220.497 149.851 220.41 149.641 220.41 149.423C220.41 149.204 220.497 148.994 220.651 148.84C220.806 148.685 221.015 148.599 221.234 148.599H223.705V146.127C223.705 145.909 223.792 145.699 223.947 145.545C224.101 145.39 224.311 145.303 224.529 145.303C224.748 145.303 224.957 145.39 225.112 145.545C225.266 145.699 225.353 145.909 225.353 146.127V148.599H227.824C228.043 148.599 228.252 148.685 228.407 148.84C228.561 148.994 228.648 149.204 228.648 149.423Z" fill="#51BAB4"/>
<path opacity="0.87" d="M6.90319 120.771C7.58566 120.771 8.13891 120.217 8.13891 119.535C8.13891 118.852 7.58566 118.299 6.90319 118.299C6.22073 118.299 5.66748 118.852 5.66748 119.535C5.66748 120.217 6.22073 120.771 6.90319 120.771Z" fill="#51BAB4"/>
<path opacity="0.24" d="M229.843 99.4667C229.843 99.6852 229.756 99.8947 229.602 100.049C229.447 100.204 229.238 100.291 229.019 100.291H226.548V102.762C226.548 102.98 226.461 103.19 226.307 103.344C226.152 103.499 225.943 103.586 225.724 103.586C225.506 103.586 225.296 103.499 225.142 103.344C224.987 103.19 224.9 102.98 224.9 102.762V100.291H222.429C222.21 100.291 222.001 100.204 221.846 100.049C221.692 99.8947 221.605 99.6852 221.605 99.4667C221.605 99.2482 221.692 99.0387 221.846 98.8842C222.001 98.7297 222.21 98.6429 222.429 98.6429H224.9V96.1715C224.9 95.953 224.987 95.7434 225.142 95.5889C225.296 95.4344 225.506 95.3477 225.724 95.3477C225.943 95.3477 226.152 95.4344 226.307 95.5889C226.461 95.7434 226.548 95.953 226.548 96.1715V98.6429H229.019C229.238 98.6429 229.447 98.7297 229.602 98.8842C229.756 99.0387 229.843 99.2482 229.843 99.4667Z" fill="#51BAB4"/>
<path opacity="0.87" d="M66.5638 65.081C66.5638 65.2994 66.477 65.509 66.3225 65.6635C66.168 65.818 65.9585 65.9048 65.74 65.9048H63.2685V68.3762C63.2685 68.5947 63.1817 68.8042 63.0273 68.9587C62.8728 69.1132 62.6632 69.2 62.4447 69.2C62.2262 69.2 62.0167 69.1132 61.8622 68.9587C61.7077 68.8042 61.6209 68.5947 61.6209 68.3762V65.9048H59.1495C58.931 65.9048 58.7215 65.818 58.567 65.6635C58.4125 65.509 58.3257 65.2994 58.3257 65.081C58.3257 64.8625 58.4125 64.6529 58.567 64.4984C58.7215 64.3439 58.931 64.2572 59.1495 64.2572H61.6209V61.7857C61.6209 61.5672 61.7077 61.3577 61.8622 61.2032C62.0167 61.0487 62.2262 60.9619 62.4447 60.9619C62.6632 60.9619 62.8728 61.0487 63.0273 61.2032C63.1817 61.3577 63.2685 61.5672 63.2685 61.7857V64.2572H65.74C65.9585 64.2572 66.168 64.3439 66.3225 64.4984C66.477 64.6529 66.5638 64.8625 66.5638 65.081Z" fill="#51BAB4"/>
<path opacity="0.87" d="M62.8563 35.0532C63.5388 35.0532 64.092 34.5 64.092 33.8175C64.092 33.135 63.5388 32.5818 62.8563 32.5818C62.1739 32.5818 61.6206 33.135 61.6206 33.8175C61.6206 34.5 62.1739 35.0532 62.8563 35.0532Z" fill="#51BAB4"/>
<path opacity="0.87" d="M68.8873 46.6442C69.3423 46.6442 69.7111 46.2754 69.7111 45.8204C69.7111 45.3654 69.3423 44.9966 68.8873 44.9966C68.4323 44.9966 68.0635 45.3654 68.0635 45.8204C68.0635 46.2754 68.4323 46.6442 68.8873 46.6442Z" fill="#51BAB4"/>
<path d="M193.455 53.1769C193.455 53.3954 193.369 53.6049 193.214 53.7594C193.06 53.9139 192.85 54.0007 192.632 54.0007H190.16V56.4721C190.16 56.6906 190.073 56.9002 189.919 57.0547C189.764 57.2092 189.555 57.296 189.336 57.296C189.118 57.296 188.908 57.2092 188.754 57.0547C188.599 56.9002 188.513 56.6906 188.513 56.4721V54.0007H186.041C185.823 54.0007 185.613 53.9139 185.459 53.7594C185.304 53.6049 185.217 53.3954 185.217 53.1769C185.217 52.9584 185.304 52.7489 185.459 52.5944C185.613 52.4399 185.823 52.3531 186.041 52.3531H188.513V49.8817C188.513 49.6632 188.599 49.4536 188.754 49.2991C188.908 49.1447 189.118 49.0579 189.336 49.0579C189.555 49.0579 189.764 49.1447 189.919 49.2991C190.073 49.4536 190.16 49.6632 190.16 49.8817V52.3531H192.632C192.85 52.3531 193.06 52.4399 193.214 52.5944C193.369 52.7489 193.455 52.9584 193.455 53.1769Z" fill="#51BAB4"/>
<path opacity="0.24" d="M200.235 26.8234C200.69 26.8234 201.059 26.4546 201.059 25.9996C201.059 25.5446 200.69 25.1758 200.235 25.1758C199.78 25.1758 199.411 25.5446 199.411 25.9996C199.411 26.4546 199.78 26.8234 200.235 26.8234Z" fill="#51BAB4"/>
<path d="M147.075 35.1355H95.9245C92.2846 35.1355 89.334 38.0862 89.334 41.726V114.32C89.334 117.96 92.2846 120.911 95.9245 120.911H147.075C150.715 120.911 153.665 117.96 153.665 114.32V41.726C153.665 38.0862 150.715 35.1355 147.075 35.1355Z" fill="#AEBFC8" fill-opacity="0.5"/>
<path d="M147.833 34.3776C146.399 33.3804 144.694 32.8484 142.948 32.8536H95.768C93.4935 32.8536 91.3122 33.7571 89.7039 35.3654C88.0957 36.9737 87.1921 39.155 87.1921 41.4294V110.053C87.1868 111.819 87.7246 113.545 88.7327 114.996C87.5934 114.206 86.6625 113.152 86.0197 111.924C85.3769 110.696 85.0414 109.33 85.042 107.944V39.2875C85.042 38.1606 85.2641 37.0448 85.6956 36.0038C86.1271 34.9628 86.7595 34.017 87.5567 33.2206C88.3539 32.4241 89.3003 31.7926 90.3417 31.3621C91.3831 30.9316 92.4992 30.7106 93.6261 30.7117H140.797C142.179 30.711 143.54 31.044 144.764 31.6822C145.989 32.3205 147.042 33.2452 147.833 34.3776Z" fill="#AEBFC8" fill-opacity="0.5"/>
<path d="M144.018 43.7114H98.9808C97.7978 43.7114 96.8389 44.6704 96.8389 45.8533V45.8616C96.8389 47.0445 97.7978 48.0035 98.9808 48.0035H144.018C145.201 48.0035 146.16 47.0445 146.16 45.8616V45.8533C146.16 44.6704 145.201 43.7114 144.018 43.7114Z" fill="white"/>
<path d="M144.018 56.5791H98.9808C97.7978 56.5791 96.8389 57.5381 96.8389 58.721V58.7292C96.8389 59.9122 97.7978 60.8711 98.9808 60.8711H144.018C145.201 60.8711 146.16 59.9122 146.16 58.7292V58.721C146.16 57.5381 145.201 56.5791 144.018 56.5791Z" fill="white"/>
<path d="M131.151 69.4473H98.9808C97.7978 69.4473 96.8389 70.4062 96.8389 71.5892V71.5974C96.8389 72.7804 97.7978 73.7393 98.9808 73.7393H131.151C132.333 73.7393 133.292 72.7804 133.292 71.5974V71.5892C133.292 70.4062 132.333 69.4473 131.151 69.4473Z" fill="white"/>
<path d="M120.433 82.3066H98.9808C97.7978 82.3066 96.8389 83.2656 96.8389 84.4485V84.4568C96.8389 85.6397 97.7978 86.5987 98.9808 86.5987H120.433C121.616 86.5987 122.575 85.6397 122.575 84.4568V84.4485C122.575 83.2656 121.616 82.3066 120.433 82.3066Z" fill="white"/>
<path d="M116.141 95.1748H98.9808C97.7978 95.1748 96.8389 96.1338 96.8389 97.3167V97.3249C96.8389 98.5079 97.7978 99.4669 98.9808 99.4669H116.141C117.324 99.4669 118.283 98.5079 118.283 97.3249V97.3167C118.283 96.1338 117.324 95.1748 116.141 95.1748Z" fill="white"/>
<path d="M116.141 108.042H98.9808C97.7978 108.042 96.8389 109.001 96.8389 110.184V110.193C96.8389 111.376 97.7978 112.335 98.9808 112.335H116.141C117.324 112.335 118.283 111.376 118.283 110.193V110.184C118.283 109.001 117.324 108.042 116.141 108.042Z" fill="white"/>
<path d="M132.897 102.383C132.691 102.384 132.491 102.314 132.331 102.185C132.17 102.056 132.059 101.876 132.015 101.674C131.777 100.514 131.655 99.333 131.653 98.1485C131.657 93.6176 133.458 89.2735 136.661 86.0689C139.865 82.8643 144.208 81.061 148.739 81.0544C148.909 81.0544 149.082 81.0544 149.258 81.0544H149.505C149.743 81.0654 149.967 81.1704 150.128 81.3466C150.288 81.5227 150.372 81.7554 150.362 81.9936C150.351 82.2317 150.246 82.4558 150.069 82.6165C149.893 82.7771 149.661 82.8613 149.422 82.8503H149.142C149.008 82.8421 148.873 82.8421 148.739 82.8503C146.46 82.8509 144.21 83.3604 142.154 84.3417C140.098 85.323 138.286 86.7513 136.852 88.5222C135.419 90.2931 134.399 92.3619 133.867 94.5775C133.335 96.7931 133.305 99.0996 133.778 101.328C133.802 101.444 133.803 101.564 133.781 101.68C133.759 101.796 133.714 101.906 133.649 102.005C133.584 102.104 133.5 102.189 133.402 102.255C133.304 102.321 133.194 102.368 133.078 102.391C133.018 102.397 132.957 102.394 132.897 102.383Z" fill="#51BAB4"/>
<path d="M151.853 114.93C151.629 114.93 151.414 114.847 151.248 114.697C151.083 114.547 150.979 114.341 150.957 114.119C150.936 113.896 150.998 113.674 151.131 113.495C151.265 113.316 151.461 113.193 151.68 113.15C154.57 112.583 157.235 111.192 159.354 109.146C161.474 107.1 162.957 104.486 163.625 101.617C163.68 101.384 163.825 101.183 164.028 101.057C164.231 100.931 164.476 100.891 164.708 100.945C164.941 101 165.143 101.145 165.268 101.348C165.394 101.551 165.434 101.796 165.38 102.029C164.636 105.239 162.979 108.166 160.61 110.456C158.241 112.747 155.26 114.303 152.026 114.938L151.853 114.93Z" fill="#51BAB4"/>
<path d="M202.22 143.573L170.916 116.05L165.767 121.207L193.282 152.512C195.086 154.316 198.546 153.789 201.001 151.326C203.456 148.862 204.016 145.378 202.22 143.573ZM167.744 113.233C171.55 108.423 173.391 102.348 172.893 96.2345C172.396 90.1209 169.599 84.4234 165.066 80.2915C160.532 76.1597 154.601 73.901 148.467 73.9713C142.334 74.0416 136.455 76.4356 132.018 80.6703C127.581 84.905 124.914 90.6651 124.558 96.7885C124.201 102.912 126.18 108.943 130.095 113.664C134.011 118.386 139.571 121.446 145.655 122.228C151.739 123.011 157.893 121.456 162.875 117.879L164.614 119.848L169.598 114.855L167.744 113.233ZM148.739 117.574C144.897 117.574 141.141 116.435 137.947 114.3C134.752 112.166 132.262 109.132 130.792 105.582C129.322 102.033 128.937 98.1271 129.687 94.3589C130.436 90.5908 132.286 87.1295 135.003 84.4128C137.72 81.6961 141.181 79.846 144.949 79.0965C148.717 78.3469 152.623 78.7316 156.173 80.2019C159.722 81.6722 162.756 84.162 164.89 87.3565C167.025 90.551 168.164 94.3067 168.164 98.1486C168.164 103.301 166.118 108.242 162.475 111.885C158.832 115.527 153.891 117.574 148.739 117.574Z" fill="#51BAB4"/>
</g>
<defs>
<clipPath id="clip0_1095_5769">
<rect width="285" height="173" fill="white"/>
</clipPath>
</defs>
</svg>
